<?xml version="1.0" encoding="UTF-8"?>
<!-- Uploaded to: SVG Find, www.svgrepo.com, Generator: SVG Find Mixer Tools -->
<svg fill="#ffffff" width="800px" height="800px" version="1.1" viewBox="144 144 512 512" xmlns="http://www.w3.org/2000/svg">
 <path d="m609.92 576.75-11.965-61.715c-5.2812-27.664-18.734-53.109-38.625-73.051l-108.53-108.53 1.6797-1.6797c8.3047-8.375 12.965-19.691 12.965-31.488 0-11.793-4.6602-23.113-12.965-31.488l-13.855-13.855c-8.375-8.3047-19.695-12.965-31.488-12.965-11.797 0-23.113 4.6602-31.488 12.965l-1.6797 1.6797-39.887-39.883c-19.387-19.387-47.641-26.957-74.125-19.863-26.484 7.0977-47.168 27.781-54.266 54.266-7.0938 26.48 0.47656 54.738 19.863 74.125l39.676 39.676-1.6797 1.6797c-8.3086 8.375-12.969 19.691-12.969 31.488s4.6602 23.113 12.969 31.488l13.855 13.855c8.375 8.3047 19.691 12.969 31.488 12.969 11.793 0 23.113-4.6641 31.488-12.969l1.8867-1.4688 108.53 108.53h0.003906c19.969 19.812 45.41 33.191 73.051 38.414l61.715 11.965h3.9922c6.332 0.11719 12.379-2.6328 16.453-7.4805 4.0742-4.8516 5.7422-11.281 4.5391-17.5zm-354.77-281.71c-6.457-6.543-10.051-15.383-9.9922-24.574s3.7656-17.984 10.309-24.441c6.543-6.4609 15.379-10.055 24.574-9.9961 9.1914 0.058594 17.984 3.7656 24.441 10.309l39.676 39.887-49.121 49.121zm51.852 118.39-13.855-13.434c-1.0117-1.0586-1.0117-2.7227 0-3.7812l112.1-112.1c1.0547-1.0117 2.7227-1.0117 3.7773 0l13.855 13.855c1.0156 1.0547 1.0156 2.7227 0 3.7773l-112.1 112.31c-1.0898 0.91797-2.6836 0.91797-3.7773 0zm224.82 134.14c-19.414-3.7812-37.254-13.285-51.219-27.293l-108.53-108.53 48.91-48.703 108.53 108.53v0.003906c14.004 13.965 23.508 31.805 27.289 51.219l6.0859 31.277z"/>
</svg>
